<svg xmlns="http://www.w3.org/2000/svg" width="18" height="18" viewBox="0 0 18 18">
    <path fill="#FFF" fill-rule="nonzero" d="M3 0C1.355 0 0 1.355 0 3s1.355 3 3 3c1.293 0 2.395-.843 2.813-2H14c1.117 0 2 .883 2 2s-.883 2-2 2H4c-2.197 0-4 1.803-4 4v1h.203C.66 14.706 2.156 16 4 16h8.188c.417 1.157 1.519 2 2.812 2 1.645 0 3-1.355 3-3s-1.355-3-3-3c-1.293 0-2.395.843-2.813 2H4c-1.117 0-2-.883-2-2s.883-2 2-2h10c1.844 0 3.34-1.294 3.797-3H18V6c0-2.197-1.803-4-4-4H5.812C5.396.843 4.293 0 3 0z"/>
</svg>
