<svg xmlns="http://www.w3.org/2000/svg" width="14" height="14" viewBox="0 0 14 14">
    <path fill="#FFF" fill-rule="evenodd" d="M5 8a1 1 0 0 1 1 1v4a1 1 0 0 1-1 1H1a1 1 0 0 1-1-1V9a1 1 0 0 1 1-1h4zm8 0a1 1 0 0 1 1 1v4a1 1 0 0 1-1 1H9a1 1 0 0 1-1-1V9a1 1 0 0 1 1-1h4zM4.5 9h-3a.5.5 0 0 0-.492.41L1 9.5v3a.5.5 0 0 0 .41.492L1.5 13h3a.5.5 0 0 0 .492-.41L5 12.5v-3a.5.5 0 0 0-.5-.5zm8 0h-3a.5.5 0 0 0-.492.41L9 9.5v3a.5.5 0 0 0 .41.492L9.5 13h3a.5.5 0 0 0 .492-.41L13 12.5v-3a.5.5 0 0 0-.5-.5zm.5-9a1 1 0 0 1 1 1v4a1 1 0 0 1-1 1H9a1 1 0 0 1-1-1V1a1 1 0 0 1 1-1h4zM5 0a1 1 0 0 1 1 1v4a1 1 0 0 1-1 1H1a1 1 0 0 1-1-1V1a1 1 0 0 1 1-1h4zm7.5 1h-3a.5.5 0 0 0-.492.41L9 1.5v3a.5.5 0 0 0 .41.492L9.5 5h3a.5.5 0 0 0 .492-.41L13 4.5v-3a.5.5 0 0 0-.5-.5zm-8 0h-3a.5.5 0 0 0-.492.41L1 1.5v3a.5.5 0 0 0 .41.492L1.5 5h3a.5.5 0 0 0 .492-.41L5 4.5v-3a.5.5 0 0 0-.5-.5z"/>
</svg>
