<svg width="149" height="32" viewBox="0 0 149 32" fill="none" xmlns="http://www.w3.org/2000/svg">
<g opacity="0.4">
<path d="M74.667 1.33333C74.667 0.596954 75.2639 0 76.0003 0H135.334C142.697 0 148.667 5.96954 148.667 13.3333V30.6667C148.667 31.403 148.07 32 147.334 32H88.0003C80.6365 32 74.667 26.0305 74.667 18.6667V1.33333Z" fill="white"/>
<path d="M89.078 19.6763V21.1509H82V10.1824H89.078V11.6495H83.7309V14.8571H88.7921V16.271H83.7309V19.6763H89.078Z" fill="#262626"/>
<path d="M95.5609 21.3333C93.9949 21.3333 92.7509 20.8241 91.8288 19.8055C90.9118 18.7869 90.4534 17.4061 90.4534 15.6629C90.4534 13.9298 90.9144 12.554 91.8365 11.5354C92.7586 10.5118 94.0001 10 95.5609 10C96.8282 10 97.8971 10.3522 98.7677 11.0566C99.6382 11.7559 100.146 12.6756 100.29 13.8158H98.5745C98.42 13.1114 98.0671 12.5489 97.5159 12.1283C96.9698 11.7027 96.3182 11.4898 95.5609 11.4898C94.5461 11.4898 93.7348 11.8699 93.1269 12.63C92.5242 13.3851 92.2229 14.396 92.2229 15.6629C92.2229 16.9449 92.5242 17.9635 93.1269 18.7185C93.7296 19.4685 94.5436 19.8435 95.5687 19.8435C96.3414 19.8435 96.9904 19.6585 97.5159 19.2886C98.0465 18.9187 98.3993 18.4018 98.5745 17.738H100.298C100.086 18.8731 99.5636 19.7574 98.729 20.3908C97.8997 21.0192 96.8436 21.3333 95.5609 21.3333Z" fill="#262626"/>
<path d="M106.68 10C108.282 10 109.552 10.5093 110.49 11.5278C111.432 12.5464 111.904 13.9273 111.904 15.6705C111.904 17.4137 111.435 18.7945 110.497 19.8131C109.56 20.8266 108.287 21.3333 106.68 21.3333C105.073 21.3333 103.801 20.8266 102.863 19.8131C101.925 18.7945 101.457 17.4137 101.457 15.6705C101.457 13.9273 101.925 12.5464 102.863 11.5278C103.801 10.5093 105.073 10 106.68 10ZM106.68 11.4974C105.619 11.4974 104.777 11.8724 104.153 12.6224C103.535 13.3724 103.226 14.3884 103.226 15.6705C103.226 16.9475 103.535 17.961 104.153 18.7109C104.777 19.4609 105.619 19.8359 106.68 19.8359C107.736 19.8359 108.573 19.4609 109.191 18.7109C109.815 17.961 110.126 16.9475 110.126 15.6705C110.126 14.3884 109.815 13.3724 109.191 12.6224C108.573 11.8724 107.736 11.4974 106.68 11.4974Z" fill="#262626"/>
<path d="M123.747 10C125.349 10 126.619 10.5093 127.556 11.5278C128.499 12.5464 128.97 13.9273 128.97 15.6705C128.97 17.4137 128.502 18.7945 127.564 19.8131C126.627 20.8266 125.354 21.3333 123.747 21.3333C122.14 21.3333 120.867 20.8266 119.93 19.8131C118.992 18.7945 118.523 17.4137 118.523 15.6705C118.523 13.9273 118.992 12.5464 119.93 11.5278C120.867 10.5093 122.14 10 123.747 10ZM123.747 11.4974C122.686 11.4974 121.843 11.8724 121.22 12.6224C120.602 13.3724 120.293 14.3884 120.293 15.6705C120.293 16.9475 120.602 17.961 121.22 18.7109C121.843 19.4609 122.686 19.8359 123.747 19.8359C124.803 19.8359 125.64 19.4609 126.258 18.7109C126.882 17.961 127.193 16.9475 127.193 15.6705C127.193 14.3884 126.882 13.3724 126.258 12.6224C125.64 11.8724 124.803 11.4974 123.747 11.4974Z" fill="#262626"/>
<path d="M132.355 21.1509H130.624V10.1824H132.355V21.1509Z" fill="#262626"/>
<path d="M141.334 19.6763V21.1509H134.41V10.1824H136.141V19.6763H141.334Z" fill="#262626"/>
<path d="M4.5 7.73047H3.79688V5.16406H0.703125V7.73047H0V2.09375H0.703125V4.53125H3.79688V2.09375H4.5V7.73047Z" fill="white"/>
<path d="M10.0026 7.73047L9.4362 6.11719H7.19401L6.6276 7.73047H5.88932L7.96745 2.09375H8.66276L10.7409 7.73047H10.0026ZM8.30339 2.94922L7.40104 5.51953H9.22917L8.32682 2.94922H8.30339Z" fill="white"/>
<path d="M12.4505 7.76953C12.3099 7.76953 12.2057 7.7526 12.138 7.71875V7.08594C12.2214 7.10677 12.3255 7.11719 12.4505 7.11719C12.6615 7.11719 12.8398 7.07031 12.9857 6.97656C13.1315 6.88281 13.2604 6.73307 13.3724 6.52734L11.4466 2.09375H12.1966L13.7083 5.74609H13.7708L15.2474 2.09375H15.9779L14.2513 6.11719C13.9831 6.74219 13.7188 7.17448 13.4583 7.41406C13.2005 7.65104 12.8646 7.76953 12.4505 7.76953Z" fill="white"/>
<path d="M18.8047 4.78906L21.6289 7.73047H20.6641L18.0625 4.99219H18.0313V7.73047H17.3281V2.09375H18.0313V4.69141H18.0625L20.4844 2.09375H21.3672L18.8047 4.78906Z" fill="white"/>
<path d="M23.2174 2.78516C23.6836 2.26172 24.3164 2 25.1159 2C25.9154 2 26.5482 2.26172 27.0143 2.78516C27.4805 3.30859 27.7135 4.01823 27.7135 4.91406C27.7135 5.8099 27.4805 6.51953 27.0143 7.04297C26.5482 7.5638 25.9154 7.82422 25.1159 7.82422C24.3164 7.82422 23.6836 7.5638 23.2174 7.04297C22.7513 6.51953 22.5182 5.8099 22.5182 4.91406C22.5182 4.01823 22.7513 3.30859 23.2174 2.78516ZM26.4831 3.26172C26.1471 2.85286 25.6914 2.64844 25.1159 2.64844C24.5404 2.64844 24.0833 2.85286 23.7448 3.26172C23.4089 3.66797 23.2409 4.21875 23.2409 4.91406C23.2409 5.60677 23.4089 6.15755 23.7448 6.56641C24.0833 6.97266 24.5404 7.17578 25.1159 7.17578C25.6914 7.17578 26.1471 6.97266 26.4831 6.56641C26.8216 6.15755 26.9909 5.60677 26.9909 4.91406C26.9909 4.21875 26.8216 3.66797 26.4831 3.26172Z" fill="white"/>
<path d="M31.4622 7.73047H29.3333V2.09375H31.4701C31.9518 2.09375 32.3411 2.22266 32.638 2.48047C32.9375 2.73828 33.0872 3.07813 33.0872 3.5C33.0872 3.79427 32.9922 4.0612 32.8021 4.30078C32.6146 4.53776 32.3854 4.68099 32.1146 4.73047V4.76172C32.4974 4.8112 32.8021 4.96094 33.0286 5.21094C33.2578 5.46094 33.3724 5.77344 33.3724 6.14844C33.3724 6.64583 33.2031 7.03385 32.8646 7.3125C32.5286 7.59115 32.0612 7.73047 31.4622 7.73047ZM30.0365 2.71484V4.52344H31.0911C31.5078 4.52344 31.8255 4.44271 32.0443 4.28125C32.2656 4.11979 32.3763 3.88672 32.3763 3.58203C32.3763 3.30339 32.2839 3.08984 32.099 2.94141C31.9141 2.79036 31.651 2.71484 31.3099 2.71484H30.0365ZM30.0365 7.10938H31.3568C31.7813 7.10938 32.1029 7.02474 32.3216 6.85547C32.5404 6.6862 32.6497 6.4388 32.6497 6.11328C32.6497 5.45703 32.1966 5.12891 31.2904 5.12891H30.0365V7.10938Z" fill="white"/>
<path d="M35.3945 2.78516C35.8607 2.26172 36.4935 2 37.293 2C38.0924 2 38.7253 2.26172 39.1914 2.78516C39.6576 3.30859 39.8906 4.01823 39.8906 4.91406C39.8906 5.8099 39.6576 6.51953 39.1914 7.04297C38.7253 7.5638 38.0924 7.82422 37.293 7.82422C36.4935 7.82422 35.8607 7.5638 35.3945 7.04297C34.9284 6.51953 34.6953 5.8099 34.6953 4.91406C34.6953 4.01823 34.9284 3.30859 35.3945 2.78516ZM38.6602 3.26172C38.3242 2.85286 37.8685 2.64844 37.293 2.64844C36.7174 2.64844 36.2604 2.85286 35.9219 3.26172C35.5859 3.66797 35.418 4.21875 35.418 4.91406C35.418 5.60677 35.5859 6.15755 35.9219 6.56641C36.2604 6.97266 36.7174 7.17578 37.293 7.17578C37.8685 7.17578 38.3242 6.97266 38.6602 6.56641C38.9987 6.15755 39.168 5.60677 39.168 4.91406C39.168 4.21875 38.9987 3.66797 38.6602 3.26172Z" fill="white"/>
<path d="M2.12891 18.3971H0V12.7604H2.13672C2.61849 12.7604 3.00781 12.8893 3.30469 13.1471C3.60417 13.4049 3.75391 13.7448 3.75391 14.1667C3.75391 14.4609 3.65885 14.7279 3.46875 14.9674C3.28125 15.2044 3.05208 15.3477 2.78125 15.3971V15.4284C3.16406 15.4779 3.46875 15.6276 3.69531 15.8776C3.92448 16.1276 4.03906 16.4401 4.03906 16.8151C4.03906 17.3125 3.86979 17.7005 3.53125 17.9792C3.19531 18.2578 2.72786 18.3971 2.12891 18.3971ZM0.703125 13.3815V15.1901H1.75781C2.17448 15.1901 2.49219 15.1094 2.71094 14.9479C2.93229 14.7865 3.04297 14.5534 3.04297 14.2487C3.04297 13.9701 2.95052 13.7565 2.76563 13.6081C2.58073 13.457 2.31771 13.3815 1.97656 13.3815H0.703125ZM0.703125 17.776H2.02344C2.44792 17.776 2.76953 17.6914 2.98828 17.5221C3.20703 17.3529 3.31641 17.1055 3.31641 16.7799C3.31641 16.1237 2.86328 15.7956 1.95703 15.7956H0.703125V17.776Z" fill="white"/>
<path d="M9.38542 18.3971V13.9128H9.32292L6.27604 18.3971H5.58073V12.7604H6.27604V17.2604H6.33854L9.38542 12.7604H10.0807V18.3971H9.38542Z" fill="white"/>
<path d="M11.9193 12.7604H13.931C14.4596 12.7604 14.8919 12.9297 15.2279 13.2682C15.5664 13.6042 15.7357 14.0378 15.7357 14.569C15.7357 15.1029 15.5664 15.5391 15.2279 15.8776C14.8893 16.2161 14.4544 16.3854 13.9232 16.3854H12.6224V18.3971H11.9193V12.7604ZM12.6224 13.3854V15.7604H13.7474C14.1484 15.7604 14.4596 15.6563 14.681 15.4479C14.9023 15.237 15.013 14.944 15.013 14.569C15.013 14.194 14.9023 13.9036 14.681 13.6979C14.4622 13.4896 14.151 13.3854 13.7474 13.3854H12.6224Z" fill="white"/>
<path d="M17.7617 13.4518C18.2279 12.9284 18.8607 12.6667 19.6602 12.6667C20.4596 12.6667 21.0924 12.9284 21.5586 13.4518C22.0247 13.9753 22.2578 14.6849 22.2578 15.5807C22.2578 16.4766 22.0247 17.1862 21.5586 17.7096C21.0924 18.2305 20.4596 18.4909 19.6602 18.4909C18.8607 18.4909 18.2279 18.2305 17.7617 17.7096C17.2956 17.1862 17.0625 16.4766 17.0625 15.5807C17.0625 14.6849 17.2956 13.9753 17.7617 13.4518ZM21.0273 13.9284C20.6914 13.5195 20.2357 13.3151 19.6602 13.3151C19.0846 13.3151 18.6276 13.5195 18.2891 13.9284C17.9531 14.3346 17.7852 14.8854 17.7852 15.5807C17.7852 16.2734 17.9531 16.8242 18.2891 17.2331C18.6276 17.6393 19.0846 17.8424 19.6602 17.8424C20.2357 17.8424 20.6914 17.6393 21.0273 17.2331C21.3659 16.8242 21.5352 16.2734 21.5352 15.5807C21.5352 14.8854 21.3659 14.3346 21.0273 13.9284Z" fill="white"/>
<path d="M27.7331 16.7057C27.7331 17.2031 27.5638 17.6094 27.2253 17.9245C26.8893 18.2396 26.457 18.3971 25.9284 18.3971H23.8776V12.7604H27.1706V13.3932H24.5807V15.0065H25.9206C26.4518 15.0065 26.8867 15.1654 27.2253 15.4831C27.5638 15.7982 27.7331 16.2057 27.7331 16.7057ZM24.5807 17.7643H25.7448C26.1484 17.7643 26.4596 17.6732 26.6784 17.4909C26.8997 17.306 27.0104 17.0443 27.0104 16.7057C27.0104 16.3646 26.8997 16.1016 26.6784 15.9167C26.4596 15.7318 26.1484 15.6393 25.7448 15.6393H24.5807V17.7643Z" fill="white"/>
<path d="M33.9583 18.3971H33.2552V15.8307H30.1615V18.3971H29.4583V12.7604H30.1615V15.1979H33.2552V12.7604H33.9583V18.3971Z" fill="white"/>
<path d="M39.6016 18.3971V13.9128H39.5391L36.4922 18.3971H35.7969V12.7604H36.4922V17.2604H36.5547L39.6016 12.7604H40.2969V18.3971H39.6016Z" fill="white"/>
<path d="M46.3034 18.3971H45.6003V15.8659H45.5378C45.168 16.1576 44.7188 16.3034 44.1901 16.3034C43.8438 16.3034 43.5326 16.25 43.2565 16.1432C42.9805 16.0365 42.7539 15.8893 42.5768 15.7018C42.4023 15.5117 42.2682 15.293 42.1745 15.0456C42.0833 14.7956 42.0378 14.5247 42.0378 14.2331V12.7604H42.7409V14.237C42.7409 14.6771 42.8659 15.0234 43.1159 15.276C43.3685 15.5286 43.7266 15.6549 44.1901 15.6549C44.4818 15.6549 44.75 15.6068 44.9948 15.5104C45.2396 15.4115 45.4414 15.2826 45.6003 15.1237V12.7604H46.3034V18.3971Z" fill="white"/>
<path d="M51.638 17.7643V18.3971H48.1458V12.7604H51.638V13.3932H48.849V15.2018H51.4935V15.8268H48.849V17.7643H51.638Z" fill="white"/>
<path d="M4.41797 29.0638H3.72266V24.0677H0.707031V29.0638H0V23.4271H4.41797V29.0638Z" fill="white"/>
<path d="M6.96354 29.0638H6.26042V23.4271H6.96354V29.0638Z" fill="white"/>
<path d="M10.0169 26.9896C9.99609 27.3385 9.95703 27.6211 9.89974 27.8372C9.84505 28.0534 9.7526 28.2409 9.6224 28.3997V28.431H12.3568V24.0599H10.2005L10.0169 26.9896ZM8.98568 29.0638V30.1771H8.33333V28.431H8.7513C8.94661 28.3268 9.08984 28.1563 9.18099 27.9193C9.27474 27.6797 9.33333 27.3646 9.35677 26.974L9.57161 23.4271H13.0599V28.431H13.763V30.1771H13.1107V29.0638H8.98568Z" fill="white"/>
<path d="M19.668 29.0638H18.9727V24.0677H15.957V29.0638H15.25V23.4271H19.668V29.0638Z" fill="white"/>
<path d="M21.5104 23.4271H23.5221C24.0508 23.4271 24.4831 23.5964 24.819 23.9349C25.1576 24.2708 25.3268 24.7044 25.3268 25.2357C25.3268 25.7695 25.1576 26.2057 24.819 26.5443C24.4805 26.8828 24.0456 27.0521 23.5143 27.0521H22.2135V29.0638H21.5104V23.4271ZM22.2135 24.0521V26.4271H23.3385C23.7396 26.4271 24.0508 26.3229 24.2721 26.1146C24.4935 25.9036 24.6042 25.6107 24.6042 25.2357C24.6042 24.8607 24.4935 24.5703 24.2721 24.3646C24.0534 24.1563 23.7422 24.0521 23.3385 24.0521H22.2135Z" fill="white"/>
<path d="M30.6771 29.0638V24.5794H30.6146L27.5677 29.0638H26.8724V23.4271H27.5677V27.9271H27.6302L30.6771 23.4271H31.3724V29.0638H30.6771Z" fill="white"/>
<path d="M37.8555 27.4935C37.7174 28.0299 37.4479 28.4414 37.0469 28.7279C36.6458 29.0143 36.1406 29.1576 35.5313 29.1576C34.7526 29.1576 34.1341 28.8958 33.6758 28.3724C33.2201 27.8464 32.9922 27.1367 32.9922 26.2435C32.9922 25.3581 33.2227 24.6523 33.6836 24.1263C34.1445 23.5977 34.7604 23.3333 35.5313 23.3333C36.1302 23.3333 36.6406 23.4974 37.0625 23.8255C37.487 24.151 37.7513 24.5846 37.8555 25.1263H37.1367C37.0352 24.7773 36.8385 24.5 36.5469 24.2943C36.2552 24.0859 35.9167 23.9818 35.5313 23.9818C35.0313 23.9818 34.6172 24.1523 34.2891 24.4935C33.9609 24.8346 33.776 25.2917 33.7344 25.8646H36.2344V26.4974H33.7227C33.7461 27.112 33.9232 27.6016 34.2539 27.9661C34.5846 28.3281 35.0117 28.5091 35.5352 28.5091C35.9336 28.5091 36.2721 28.4206 36.5508 28.2435C36.8294 28.0664 37.0247 27.8164 37.1367 27.4935H37.8555Z" fill="white"/>
<path d="M44.987 29.0638H44.3307V24.7201H44.3034L42.5065 29.0247H41.9128L40.1159 24.7201H40.0885V29.0638H39.4323V23.4271H40.2487L42.194 28.1302H42.2253L44.1706 23.4271H44.987V29.0638Z" fill="white"/>
<path d="M49.1458 29.1576C48.3672 29.1576 47.7487 28.8958 47.2904 28.3724C46.8346 27.8464 46.6068 27.1367 46.6068 26.2435C46.6068 25.3581 46.8372 24.6523 47.2982 24.1263C47.7591 23.5977 48.375 23.3333 49.1458 23.3333C49.7448 23.3333 50.2552 23.4974 50.6771 23.8255C51.1016 24.151 51.3659 24.5846 51.4701 25.1263H50.7513C50.6497 24.7773 50.4531 24.5 50.1615 24.2943C49.8698 24.0859 49.5313 23.9818 49.1458 23.9818C48.5964 23.9818 48.1563 24.1875 47.8255 24.599C47.4948 25.0104 47.3294 25.5586 47.3294 26.2435C47.3294 26.9362 47.4935 27.487 47.8216 27.8958C48.1497 28.3047 48.5924 28.5091 49.1497 28.5091C49.5482 28.5091 49.8867 28.4206 50.1654 28.2435C50.444 28.0664 50.6393 27.8164 50.7513 27.4935H51.4701C51.332 28.0299 51.0625 28.4414 50.6615 28.7279C50.2604 29.0143 49.7552 29.1576 49.1458 29.1576Z" fill="white"/>
<path d="M54.7852 29.0638H54.082V24.0599H52.3047V23.4271H56.5625V24.0599H54.7852V29.0638Z" fill="white"/>
<path d="M60.1784 29.0638H58.0495V23.4271H60.1862C60.668 23.4271 61.0573 23.556 61.3542 23.8138C61.6536 24.0716 61.8034 24.4115 61.8034 24.8333C61.8034 25.1276 61.7083 25.3945 61.5182 25.6341C61.3307 25.8711 61.1016 26.0143 60.8307 26.0638V26.0951C61.2135 26.1445 61.5182 26.2943 61.7448 26.5443C61.974 26.7943 62.0885 27.1068 62.0885 27.4818C62.0885 27.9792 61.9193 28.3672 61.5807 28.6458C61.2448 28.9245 60.7773 29.0638 60.1784 29.0638ZM58.7526 24.0482V25.8568H59.8073C60.224 25.8568 60.5417 25.776 60.7604 25.6146C60.9818 25.4531 61.0924 25.2201 61.0924 24.9154C61.0924 24.6367 61 24.4232 60.8151 24.2747C60.6302 24.1237 60.3672 24.0482 60.026 24.0482H58.7526ZM58.7526 28.4427H60.0729C60.4974 28.4427 60.819 28.3581 61.0378 28.1888C61.2565 28.0195 61.3659 27.7721 61.3659 27.4466C61.3659 26.7904 60.9128 26.4622 60.0065 26.4622H58.7526V28.4427Z" fill="white"/>
<path d="M64.1107 24.1185C64.5768 23.5951 65.2096 23.3333 66.0091 23.3333C66.8086 23.3333 67.4414 23.5951 67.9076 24.1185C68.3737 24.6419 68.6068 25.3516 68.6068 26.2474C68.6068 27.1432 68.3737 27.8529 67.9076 28.3763C67.4414 28.8971 66.8086 29.1576 66.0091 29.1576C65.2096 29.1576 64.5768 28.8971 64.1107 28.3763C63.6445 27.8529 63.4115 27.1432 63.4115 26.2474C63.4115 25.3516 63.6445 24.6419 64.1107 24.1185ZM67.3763 24.5951C67.0404 24.1862 66.5846 23.9818 66.0091 23.9818C65.4336 23.9818 64.9766 24.1862 64.638 24.5951C64.3021 25.0013 64.1341 25.5521 64.1341 26.2474C64.1341 26.9401 64.3021 27.4909 64.638 27.8997C64.9766 28.306 65.4336 28.5091 66.0091 28.5091C66.5846 28.5091 67.0404 28.306 67.3763 27.8997C67.7148 27.4909 67.8841 26.9401 67.8841 26.2474C67.8841 25.5521 67.7148 25.0013 67.3763 24.5951Z" fill="white"/>
</g>
</svg>
