<svg xmlns="http://www.w3.org/2000/svg" width="21" height="21" viewBox="0 0 21 21">
    <g fill="none">
        <path fill="#29B6F6" d="M10.5 0C4.701 0 0 4.701 0 10.5S4.701 21 10.5 21 21 16.299 21 10.5 16.299 0 10.5 0z"/>
        <path fill="#FFF" d="M15.724 5.775l-1.967 10.041s-.084.459-.654.459c-.302 0-.458-.144-.458-.144l-4.26-3.535-2.084-1.05-2.675-.712s-.476-.137-.476-.53c0-.329.49-.485.49-.485l11.19-4.446s.342-.124.592-.123c.153 0 .328.066.328.263 0 .13-.026.262-.026.262z"/>
        <path fill="#B0BEC5" d="M9.975 13.915l-1.799 1.771s-.078.06-.182.063c-.037.002-.075-.004-.115-.022l.506-3.132 1.59 1.32z"/>
        <path fill="#CFD8DC" d="M13.596 7.453c-.089-.116-.253-.137-.368-.049L6.3 11.55s1.106 3.093 1.274 3.629c.17.536.305.548.305.548l.506-3.131 5.162-4.776c.115-.087.137-.252.049-.367z"/>
    </g>
</svg>
