<svg xmlns="http://www.w3.org/2000/svg" width="144" height="32" viewBox="0 0 144 32">
    <g fill="none" fill-rule="nonzero">
        <path fill="#44C543" d="M33 0h27c10.493 0 19 8.507 19 19v11a2 2 0 0 1-2 2H50c-10.493 0-19-8.507-19-19V2a2 2 0 0 1 2-2z"/>
        <path fill="#FFF" d="M66.18 9.45c3.68 0 6 2.55 6 6.55s-2.32 6.55-6 6.55-6-2.51-6-6.55 2.32-6.55 6-6.55zM58.86 14h-2.23a3.18 3.18 0 0 0-3.24-2.64c-2.18 0-3.57 1.8-3.57 4.63s1.39 4.63 3.58 4.63a3.09 3.09 0 0 0 3.24-2.44h2.22c-.4 2.72-2.47 4.36-5.47 4.36-3.62.01-5.89-2.48-5.89-6.54 0-4.05 2.29-6.55 5.89-6.55A5.15 5.15 0 0 1 58.86 14zM46 9.66v1.91h-6V15h5.61v1.8H40v3.63h6v1.91h-8.25V9.66H46zm20.16 1.72c-2.26 0-3.7 1.79-3.7 4.62s1.44 4.62 3.7 4.62c2.26 0 3.7-1.79 3.7-4.62s-1.44-4.62-3.7-4.62z"/>
        <path fill="#3F3F3F" d="M96.16 13.28H94.5a3.61 3.61 0 0 0-3.64-2.69c-2.61 0-4.18 1.88-4.18 5s1.6 5.17 4.18 5.17a3.52 3.52 0 0 0 3.8-3.59V17h-3.58v-1.42h5.16v1.2c0 3.43-1.99 5.46-5.38 5.46-3.54 0-5.81-2.58-5.81-6.62s2.26-6.49 5.81-6.49a5.1 5.1 0 0 1 5.3 4.15zm18.24-4.15c3.6 0 5.84 2.54 5.84 6.56 0 4-2.25 6.55-5.84 6.55s-5.85-2.52-5.85-6.55c0-4.03 2.25-6.56 5.85-6.56zm9.46.22l-.07 8.13a3.46 3.46 0 0 0 6.91 0V9.35h1.58v8.23c0 2.71-1.88 4.66-5 4.66s-5-1.95-5-4.66V9.35h1.58zm-20.86 0c2.44 0 4 1.49 4 3.77a3.62 3.62 0 0 1-2.55 3.64l3 5.24h-1.86l-2.71-5h-3l-.03 5h-1.59V9.35H103zm39.198 1.139a3.89 3.89 0 0 1 1.132 2.931 3.91 3.91 0 0 1-4.07 4.08h-2.93V22h-1.58V9.35h4.52a3.89 3.89 0 0 1 2.928 1.139zm-27.798.101c-2.59 0-4.22 1.97-4.22 5.1 0 3.12 1.63 5.09 4.22 5.09s4.22-2 4.22-5.09-1.63-5.1-4.22-5.1zm24.46.16h-2.53v5.35h2.53a2.53 2.53 0 0 0 2.85-2.68 2.52 2.52 0 0 0-2.85-2.67zm-36.08-.03h-3l.07 4.86h3a2.27 2.27 0 0 0 2.55-2.43 2.33 2.33 0 0 0-2.62-2.43zM6 9.5c2.88 0 5.06 1.7 5.47 4.24H9.13A3.13 3.13 0 0 0 6 11.37c-2.29 0-3.65 1.7-3.65 4.56 0 2.86 1.42 4.7 3.71 4.7a3 3 0 0 0 3.28-3v-.21H6.26V15.7h5.27v1.35c0 3.44-2.06 5.5-5.53 5.5-3.7 0-6-2.55-6-6.55s2.29-6.5 6-6.5zm13-.05c3.68 0 6 2.55 6 6.55s-2.32 6.55-6 6.55S13 20 13 16s2.32-6.55 6-6.55zm-.01 1.93c-2.26 0-3.72 1.79-3.72 4.62h.02c0 2.83 1.43 4.62 3.7 4.62 2.27 0 3.7-1.79 3.7-4.62s-1.44-4.62-3.7-4.62z"/>
    </g>
</svg>
