<svg xmlns="http://www.w3.org/2000/svg" width="16" height="16" viewBox="0 0 16 16">
    <path fill="#44C543" fill-rule="nonzero" d="M13.1 16h-.016c-2.733-.09-5.935-2.739-8.14-4.946C2.733 8.847.085 5.644 0 2.924-.03 1.969 2.311.272 2.335.254c.608-.422 1.283-.272 1.56.112.188.26 1.963 2.95 2.156 3.255.2.317.17.789-.08 1.262a76.081 76.081 0 0 1-.809 1.441c.232.33.844 1.138 2.108 2.402 1.265 1.264 2.072 1.878 2.403 2.11a76.082 76.082 0 0 1 1.442-.81c.466-.247.935-.279 1.254-.083.327.2 3.01 1.985 3.257 2.157.207.146.341.396.368.687.026.294-.065.605-.254.876-.016.023-1.693 2.337-2.64 2.337z"/>
</svg>
