<svg xmlns="http://www.w3.org/2000/svg" width="488" height="201" viewBox="0 0 488 201">
    <g fill="none" fill-rule="evenodd" transform="translate(0 1)">
        <ellipse cx="244" cy="183.5" fill="#F2F2F2" fill-rule="nonzero" rx="244" ry="16.5"/>
        <path fill="#2F2E41" fill-rule="nonzero" d="M235.645 7C195.69 7 167 32.607 167 92.358 167 160.075 195.689 178 235.645 178 275.602 178 306 158.368 306 92.358 306 21.795 275.602 7 235.645 7zm.263 148.522c-27.675 0-42.133-16.218-42.133-63.12 0-41.385 15.05-63.209 42.725-63.209s42.725 14.335 42.725 63.208c0 45.72-15.642 63.121-43.317 63.121z"/>
        <path fill="#44C543" fill-rule="nonzero" d="M142.096 130.467h-16.413v-48.77c0-5.393-4.334-9.766-9.68-9.766h-3.845a9.635 9.635 0 0 0-6.844 2.86 9.812 9.812 0 0 0-2.835 6.907v48.769H56.184a5.516 5.516 0 0 1-4.733-2.698 5.62 5.62 0 0 1-.153-5.483l48.998-93.577a9.846 9.846 0 0 0 .624-7.65 9.738 9.738 0 0 0-5.049-5.744l-2.892-1.378c-4.665-2.223-10.238-.363-12.67 4.227L20.55 130.967a13.34 13.34 0 0 0-1.55 6.244c0 3.512 1.383 6.88 3.844 9.365a13.065 13.065 0 0 0 9.28 3.879h70.355v30.838c0 3.105 1.222 6.083 3.398 8.278A11.55 11.55 0 0 0 114.08 193a11.55 11.55 0 0 0 8.204-3.429 11.761 11.761 0 0 0 3.398-8.278v-30.838h16.413c5.47 0 9.904-4.475 9.904-9.994 0-5.52-4.434-9.994-9.904-9.994zM448.096 130.467h-16.413v-48.77c0-5.393-4.334-9.766-9.68-9.766h-3.845a9.635 9.635 0 0 0-6.844 2.86 9.812 9.812 0 0 0-2.835 6.907v48.769h-46.295a5.516 5.516 0 0 1-4.733-2.698 5.62 5.62 0 0 1-.153-5.483l48.998-93.577a9.846 9.846 0 0 0 .625-7.65 9.738 9.738 0 0 0-5.05-5.744l-2.892-1.378c-4.665-2.223-10.238-.363-12.67 4.227L326.55 130.967a13.34 13.34 0 0 0-1.55 6.244c0 7.314 5.876 13.244 13.125 13.244h70.354v30.838c0 6.466 5.194 11.707 11.602 11.707s11.602-5.241 11.602-11.707v-30.838h16.413c5.47 0 9.904-4.475 9.904-9.994 0-5.52-4.434-9.994-9.904-9.994z"/>
        <path stroke="#3F3D56" d="M147.096 124.467h-16.413v-48.77c0-2.59-1.02-5.074-2.835-6.905a9.635 9.635 0 0 0-6.844-2.86h-3.846c-5.346 0-9.68 4.372-9.68 9.766v48.769H61.185a5.516 5.516 0 0 1-4.733-2.698 5.62 5.62 0 0 1-.153-5.483l48.998-93.577a9.846 9.846 0 0 0 .624-7.65 9.738 9.738 0 0 0-5.049-5.744L97.98 7.937c-4.665-2.223-10.238-.363-12.67 4.227L25.55 124.967a13.34 13.34 0 0 0-1.55 6.244c0 7.314 5.876 13.244 13.125 13.244h70.354v30.838c0 3.105 1.222 6.083 3.398 8.278A11.55 11.55 0 0 0 119.08 187c6.408 0 11.602-5.241 11.602-11.707v-30.838h16.413a9.86 9.86 0 0 0 7.003-2.928 10.04 10.04 0 0 0 2.901-7.066 10.04 10.04 0 0 0-2.9-7.067 9.86 9.86 0 0 0-7.004-2.927zM457.096 124.467h-16.413v-48.77c0-5.393-4.334-9.766-9.68-9.766h-3.845a9.635 9.635 0 0 0-6.844 2.86 9.812 9.812 0 0 0-2.835 6.907v48.769h-46.295a5.516 5.516 0 0 1-4.733-2.698 5.62 5.62 0 0 1-.153-5.483l48.998-93.577a9.846 9.846 0 0 0 .625-7.65 9.738 9.738 0 0 0-5.05-5.744l-2.892-1.378c-4.665-2.223-10.238-.363-12.67 4.227L335.55 124.967a13.34 13.34 0 0 0-1.55 6.244c0 7.314 5.876 13.244 13.125 13.244h70.354v30.838c0 6.466 5.194 11.707 11.602 11.707s11.602-5.241 11.602-11.707v-30.838h16.413a9.86 9.86 0 0 0 7.003-2.928 10.04 10.04 0 0 0 2.901-7.066c0-5.52-4.434-9.994-9.904-9.994zM243.645 0C203.69 0 175 25.607 175 85.358 175 153.075 203.689 171 243.645 171 283.602 171 314 151.368 314 85.358 314 14.795 283.602 0 243.645 0zm.263 148.522c-27.675 0-42.133-16.218-42.133-63.12 0-41.385 15.05-63.209 42.725-63.209s42.725 14.335 42.725 63.208c0 45.72-15.642 63.121-43.317 63.121z"/>
        <ellipse cx="217" cy="77" fill="#2F2E41" fill-rule="nonzero" rx="8" ry="10"/>
        <ellipse cx="261" cy="77" fill="#2F2E41" fill-rule="nonzero" rx="8" ry="10"/>
        <path fill="#2F2E41" fill-rule="nonzero" d="M254 107c0 4.97-6.492 9-14.5 9s-14.5-4.03-14.5-9c0-4.305 4.87-7.905 11.375-8.785A21.966 21.966 0 0 1 239.5 98c1.75-.006 3.497.195 5.206.6 5.435 1.295 9.294 4.57 9.294 8.4z"/>
        <ellipse cx="219" cy="74" stroke="#3F3D56" rx="8" ry="10"/>
        <ellipse cx="261" cy="74" stroke="#3F3D56" rx="8" ry="10"/>
        <ellipse cx="240.5" cy="104" stroke="#3F3D56" rx="14.5" ry="9"/>
        <path fill="#FFF" fill-rule="nonzero" d="M246 99.6a2.402 2.402 0 0 1-.695 1.696 2.34 2.34 0 0 1-1.673.704h-5.263c-1.35-.045-2.408-1.117-2.368-2.4a2.365 2.365 0 0 1 .432-1.37 26.024 26.024 0 0 1 3.515-.23 26.343 26.343 0 0 1 5.857.64c.13.305.196.631.195.96z"/>
        <circle cx="219" cy="71" r="2" fill="#FFF" fill-rule="nonzero"/>
        <circle cx="263" cy="71" r="2" fill="#FFF" fill-rule="nonzero"/>
        <circle cx="265" cy="93" r="2" fill="#2F2E41" fill-rule="nonzero" opacity=".3"/>
        <circle cx="207" cy="93" r="2" fill="#2F2E41" fill-rule="nonzero" opacity=".3"/>
    </g>
</svg>
