<svg xmlns="http://www.w3.org/2000/svg" width="20" height="21" viewBox="0 0 20 21">
    <g fill="none">
        <path fill="#FFF" d="M10 .5C8.68.5 4.665.5 2.445 2.527 1.123 3.844.5 5.747.5 8.5V10c0 2.753.623 4.656 1.96 5.988.667.608 1.575 1.093 2.684 1.428l.356.107v2.665c0 .312.09.312.12.312.062 0 .16-.02.348-.186.045-.044.375-.401 1.98-2.199l.162-.181.242.015C8.889 17.983 9.444 18 10 18c1.32 0 5.335 0 7.555-2.027C18.877 14.655 19.5 12.752 19.5 10V8.5c0-2.753-.623-4.656-1.96-5.988C15.335.5 11.32.5 10 .5z"/>
        <path fill="#7E57C2" d="M14.726 12.427c-.556-.468-.813-.61-1.58-1.07-.319-.191-.806-.357-1.062-.357-.174 0-.383.133-.511.261-.328.329-.436.739-1.01.739-.563 0-1.546-.572-2.25-1.313C7.572 9.983 7 9 7 8.438c0-.574.403-.69.731-1.018.128-.127.269-.337.269-.511 0-.256-.165-.735-.357-1.054-.46-.768-.601-1.024-1.07-1.58C6.414 4.087 6.234 4 6.045 4c-.32 0-.739.158-1.023.37-.427.318-.873.752-.993 1.292-.016.073-.026.147-.029.221-.022.563.199 1.133.437 1.617.561 1.14 1.304 2.242 2.113 3.227.259.316.54.608.832.891.283.291.575.573.89.832.986.809 2.088 1.552 3.228 2.113.479.236 1.043.453 1.6.437.08-.002.159-.011.239-.029.54-.119.973-.566 1.291-.993.212-.284.37-.703.37-1.023 0-.189-.086-.37-.274-.528zM15 10c-.276 0-.5-.224-.5-.5V9c0-2.481-2.019-4.5-4.5-4.5-.276 0-.5-.224-.5-.5s.224-.5.5-.5c3.033 0 5.5 2.468 5.5 5.5v.5c0 .276-.224.5-.5.5zm-3.071-1c-.222 0-.425-.149-.484-.374-.136-.525-.546-.936-1.07-1.071-.268-.07-.428-.342-.359-.61.069-.267.341-.427.61-.359.873.227 1.559.911 1.787 1.787.07.268-.09.54-.357.61-.043.011-.085.017-.127.017z"/>
        <path fill="#7E57C2" d="M13.5 9.5c-.276 0-.5-.224-.5-.5 0-1.594-1.247-2.909-2.839-2.993-.276-.014-.487-.25-.473-.526.014-.276.254-.487.525-.473C12.338 5.12 14 6.874 14 9c0 .276-.224.5-.5.5z"/>
        <path fill="#7E57C2" d="M10 0C7.75 0 4.244.207 2.108 2.158.598 3.662 0 5.771 0 8.5c0 .226-.001.478.001.75C-.001 9.521 0 9.774 0 10c0 2.729.598 4.838 2.108 6.341.813.743 1.827 1.232 2.892 1.553v2.294c0 .797.524.812.62.812h.005c.247-.001.46-.122.675-.312.08-.072 1.01-1.107 2.02-2.24.602.038 1.175.052 1.68.052 2.25 0 5.755-.207 7.892-2.159C19.4 14.838 20 12.73 20 10c0-.226 0-.478-.002-.75C20 8.977 20 8.726 20 8.5c0-2.729-.599-4.838-2.108-6.341C15.756.207 12.25 0 10 0zm8.5 9.825V10c0 2.453-.523 4.124-1.643 5.255C14.916 17 11.219 17 10 17c-.371 0-.973 0-1.684-.05L6 19.541V16.61c-1.052-.252-2.091-.666-2.857-1.354C2.023 14.124 1.5 12.453 1.5 9.999v-.174l.001-.586-.001-.565V8.5c0-2.453.522-4.125 1.643-5.256C5.083 1.499 8.781 1.499 10 1.499c1.219 0 4.916 0 6.857 1.745C17.977 4.375 18.5 6.047 18.5 8.5v.174c0 .176 0 .365-.002.587.002.2.002.389.002.565z"/>
    </g>
</svg>
