<svg xmlns="http://www.w3.org/2000/svg" width="21" height="21" viewBox="0 0 21 21">
    <path fill="#40C351" d="M10.504 0c2.805 0 5.44 1.094 7.423 3.078C19.91 5.062 21.001 7.699 21 10.504 20.998 16.29 16.288 21 10.5 21c-1.888 0-3.736-.506-5.347-1.463l-.384-.228-3.975 1.042 1.062-3.873-.25-.397C.554 14.41-.001 12.478 0 10.495.003 4.708 4.713 0 10.504 0zM6.027 4.663c-.21 0-.552.079-.841.395-.29.316-1.105 1.08-1.105 2.632 0 1.553 1.13 3.054 1.288 3.264.158.21 2.184 3.5 5.392 4.765 2.667 1.05 3.21.842 3.788.79.58-.053 1.868-.764 2.13-1.501.264-.737.264-1.369.185-1.5-.079-.132-.29-.21-.605-.369-.315-.158-1.867-.921-2.157-1.027-.29-.105-.5-.157-.71.159-.21.315-.815 1.026-1 1.237-.184.21-.368.237-.684.079-.315-.159-1.332-.491-2.538-1.566-.938-.837-1.572-1.87-1.756-2.186-.184-.315-.02-.486.138-.644.142-.142.316-.369.474-.553.158-.184.21-.316.316-.526.105-.211.052-.395-.027-.553-.078-.158-.691-1.72-.972-2.343-.236-.526-.485-.537-.71-.546-.185-.008-.395-.007-.606-.007z"/>
</svg>
